<svg id="visual" viewBox="0 0 900 600" width="900" height="600" xmlns="http://www.w3.org/2000/svg" xmlns:xlink="http://www.w3.org/1999/xlink" version="1.1"><path d="M0 282L25 300.8C50 319.7 100 357.3 150 384C200 410.7 250 426.3 300 418.2C350 410 400 378 450 377.8C500 377.7 550 409.3 600 424.8C650 440.3 700 439.7 750 421.5C800 403.3 850 367.7 875 349.8L900 332L900 601L875 601C850 601 800 601 750 601C700 601 650 601 600 601C550 601 500 601 450 601C400 601 350 601 300 601C250 601 200 601 150 601C100 601 50 601 25 601L0 601Z" fill="#0175a2"></path><path d="M0 443L25 427.8C50 412.7 100 382.3 150 374.5C200 366.7 250 381.3 300 398.8C350 416.3 400 436.7 450 427.7C500 418.7 550 380.3 600 382.2C650 384 700 426 750 428.8C800 431.7 850 395.3 875 377.2L900 359L900 601L875 601C850 601 800 601 750 601C700 601 650 601 600 601C550 601 500 601 450 601C400 601 350 601 300 601C250 601 200 601 150 601C100 601 50 601 25 601L0 601Z" fill="#0094b5"></path><path d="M0 415L25 415.5C50 416 100 417 150 413.2C200 409.3 250 400.7 300 411.5C350 422.3 400 452.7 450 467C500 481.3 550 479.7 600 482.2C650 484.7 700 491.3 750 477.3C800 463.3 850 428.7 875 411.3L900 394L900 601L875 601C850 601 800 601 750 601C700 601 650 601 600 601C550 601 500 601 450 601C400 601 350 601 300 601C250 601 200 601 150 601C100 601 50 601 25 601L0 601Z" fill="#00b3c0"></path><path d="M0 491L25 484.2C50 477.3 100 463.7 150 455.7C200 447.7 250 445.3 300 450.5C350 455.7 400 468.3 450 472.7C500 477 550 473 600 472.5C650 472 700 475 750 472.7C800 470.3 850 462.7 875 458.8L900 455L900 601L875 601C850 601 800 601 750 601C700 601 650 601 600 601C550 601 500 601 450 601C400 601 350 601 300 601C250 601 200 601 150 601C100 601 50 601 25 601L0 601Z" fill="#4cd1c4"></path><path d="M0 558L25 548.5C50 539 100 520 150 515.5C200 511 250 521 300 531.5C350 542 400 553 450 549.2C500 545.3 550 526.7 600 515.5C650 504.3 700 500.7 750 508C800 515.3 850 533.7 875 542.8L900 552L900 601L875 601C850 601 800 601 750 601C700 601 650 601 600 601C550 601 500 601 450 601C400 601 350 601 300 601C250 601 200 601 150 601C100 601 50 601 25 601L0 601Z" fill="#86edc3"></path></svg>